<?xml version="1.0" encoding="UTF-8"?>
<svg id="Layer_1" xmlns="http://www.w3.org/2000/svg" version="1.1" viewBox="0 0 2903.92 1200">
  <!-- Generator: Adobe Illustrator 30.0.0, SVG Export Plug-In . SVG Version: 2.1.1 Build 123)  -->
  <defs>
    <style>
      .st0 {
        fill: #fff;
      }
    </style>
  </defs>
  <path class="st0" d="M389.26,900.95l-9.3-27.9h-48.93l-9.71,27.9h-20.22l53.38-133.85h4.85l49.74,133.85h-19.82ZM356.1,801.87l-20.62,58.23h39.23l-18.6-58.23Z"/>
  <path class="st0" d="M561.13,769.12h18.2v90.18c-.81,14.56,10.51,27.09,25.07,27.5h2.83c7.68.4,15.37-2.43,21.03-7.68,5.26-5.66,8.09-12.94,7.68-20.62v-89.37h18.2v91.8c.81,11.73-4.04,23.05-12.54,31.14-8.49,7.28-19.82,11.32-33.97,11.32-14.96,0-26.29-3.64-33.97-10.92-8.09-7.28-12.13-17.79-12.13-31.54l-.4-91.8Z"/>
  <path class="st0" d="M867.25,785.29v115.66h-17.79v-115.66h-42.06v-16.18h103.93v16.18h-44.08Z"/>
  <path class="st0" d="M1048.02,833.82c-.81-16.98,4.45-33.97,14.56-47.72,8.9-12.54,23.45-19.82,38.82-19.41,18.2,0,32.35,6.07,42.06,17.79,9.71,11.73,14.56,28.31,14.56,49.34s-4.85,38.42-14.56,50.95c-9.71,12.54-23.86,18.6-42.06,18.6-15.37.4-30.33-6.87-38.82-19.41-9.71-13.34-14.56-29.92-14.56-50.14ZM1067.02,833.82c-.4,13.34,2.83,26.29,8.9,38.01,4.85,9.3,14.56,15.37,25.07,15.37,11.32.81,21.84-4.85,28.31-13.75,6.47-9.3,9.71-22.24,9.71-39.23,0-33.97-12.54-50.95-38.01-50.95-10.51-.4-20.22,4.85-25.48,13.75-5.66,8.49-8.49,21.03-8.49,36.8Z"/>
  <path class="st0" d="M1416.42,900.95l-15.77-84.52-28.71,86.54h-4.45l-29.52-86.54-15.37,84.52h-16.98l24.67-131.83h8.09l31.54,96.25,29.12-96.25h8.09l26.69,131.83h-17.39Z"/>
  <path class="st0" d="M1661.07,900.95l-8.9-27.9h-48.93l-9.71,27.9h-20.22l53.38-133.85h4.85l49.74,133.85h-20.22ZM1627.91,801.87l-20.22,58.23h39.23l-19.01-58.23Z"/>
  <path class="st0" d="M1863.27,785.29v115.66h-18.2v-115.66h-41.65v-16.18h103.93v16.18h-44.08Z"/>
  <path class="st0" d="M2063.85,900.95v-131.83h18.2v131.83h-18.2Z"/>
  <path class="st0" d="M2243.8,833.82c-.81-16.98,4.45-33.97,14.15-47.72,8.9-12.54,23.45-19.82,38.82-19.41,18.2,0,32.35,6.07,42.06,17.79,9.71,11.73,14.56,28.31,14.56,49.34s-4.85,38.42-14.56,50.95c-9.71,12.54-23.86,18.6-42.06,18.6-15.37.4-30.33-6.87-38.82-19.41-9.3-13.34-14.15-29.92-14.15-50.14ZM2262.81,833.82c-.4,13.34,2.83,26.29,8.9,38.01,4.85,9.3,14.56,15.37,25.07,15.37,11.32.81,21.84-4.85,28.31-13.75,6.47-9.3,9.71-22.24,9.71-39.23,0-33.97-12.54-50.95-38.01-50.95-10.51-.4-20.22,4.85-25.48,13.75-5.66,8.49-8.49,21.03-8.49,36.8Z"/>
  <path class="st0" d="M2598.05,902.97l-68.34-96.65v94.63h-16.98v-131.83h7.28l66.32,91.39v-91.39h16.98v133.85h-5.26Z"/>
  <g>
    <polygon class="st0" points="1114.35 615.67 957.34 392.81 957.34 611.25 917.59 611.25 917.59 307.27 934.85 307.27 1087.84 517.69 1087.84 307.27 1127.2 307.27 1127.2 615.67 1114.35 615.67"/>
    <path class="st0" d="M1166.95,500.02c0-34.53,9.24-62.24,27.71-83.52,18.47-21.28,42.56-31.72,73.08-31.72s56.62,10.04,73.89,30.52c17.67,20.48,26.5,48.19,26.5,84.73s-8.83,64.25-26.9,85.13c-18.07,20.88-42.56,30.92-73.48,30.92s-56.22-10.44-73.89-31.32c-17.27-21.28-26.1-49.39-26.9-84.73M1209.51,500.02c0,55.82,19.68,83.92,59.03,83.92,17.67.4,33.73-8.03,42.97-22.49,10.44-14.86,15.66-35.34,15.66-61.44,0-55.41-19.68-82.72-59.03-82.72-17.27-.4-33.33,7.63-42.97,22.09-10.44,14.46-15.66,34.53-15.66,60.63"/>
    <polygon class="st0" points="1486.99 615.67 1476.55 615.67 1380.98 387.59 1424.34 387.59 1482.97 544.19 1542.8 387.59 1584.16 387.59 1486.99 615.67"/>
    <path class="st0" d="M1773.29,557.44c0,18.07.8,35.74,3.21,53.41h-36.14l-3.61-28.11h-1.2c-12.05,17.67-36.54,33.33-68.26,33.33-44.97,0-68.26-31.72-68.26-63.85,0-53.81,47.78-83.52,134.52-82.72v-4.42c0-18.47-4.82-52.2-51-51.8-20.88-.4-40.96,5.62-58.63,16.87l-9.24-27.31c22.49-12.85,47.38-19.68,73.48-19.68,69.07,0,85.53,46.58,85.53,91.55l-.4,82.72h0ZM1733.54,497.21c-44.17-.8-94.36,6.83-94.36,50.19,0,26.9,17.67,38.55,37.75,38.55,24.49.8,46.58-14.05,55.01-37.34,1.2-4.02,2.01-8.43,2.01-12.85l-.4-38.55h0Z"/>
    <polygon class="st0" points="1900.99 344.62 1900.99 611.25 1859.22 611.25 1859.22 344.62 1762.45 344.62 1762.45 307.27 2002.58 307.27 2002.58 344.62 1900.99 344.62"/>
    <path class="st0" d="M2178.46,504.03h-160.62c0,26.1,6.83,46.18,21.28,60.23,12.85,12.05,30.52,19.27,48.19,18.47,20.48.8,40.56-6.02,56.62-19.68l16.87,28.11c-8.03,7.23-17.67,12.45-28.11,15.26-17.27,6.02-34.93,8.83-53,8.43-26.5.4-52.2-9.64-71.07-28.51-22.09-20.88-32.53-48.59-32.53-84.33s10.84-65.85,33.33-88.34c18.87-19.27,43.77-29.71,70.67-29.71,31.72,0,56.62,8.83,74.29,26.9,17.67,17.27,26.1,39.75,26.1,68.26,1.2,8.43,0,16.46-2.01,24.9M2082.49,417.7c-32.93-.8-60.63,24.09-63.45,57.02h123.28c.4-14.46-4.82-28.91-14.46-39.75-11.65-11.24-26.1-17.27-45.38-17.27"/>
    <path class="st0" d="M2388.07,406.86l-19.68,27.71c-6.02-5.22-13.25-8.83-21.28-11.24-9.64-3.61-20.08-5.22-30.52-5.22-21.68,0-38.95,7.63-51.8,22.89-12.45,14.86-19.27,35.74-19.27,61.84s6.42,45.78,19.68,59.83c12.85,13.65,30.92,20.48,53.81,20.48,18.07,0,35.74-6.83,53.81-20.48l15.26,33.33c-21.28,13.25-47.38,20.48-78.7,20.48s-55.41-10.04-75.09-30.52c-20.08-20.48-29.71-47.78-29.71-82.32s10.04-63.85,30.92-85.53c20.88-21.68,48.99-32.12,85.13-32.12,12.85.4,25.7,2.81,37.34,7.23,11.24,1.61,21.28,6.83,30.12,13.65"/>
    <path class="st0" d="M2562.74,611.25v-139.34c0-16.87-4.02-29.71-12.05-38.95s-19.68-14.05-34.53-14.05c-10.04,0-20.48,3.21-28.91,8.43-8.83,4.82-16.06,11.24-22.09,19.68v165.44h-39.35v-295.54l39.35-19.68v115.25c6.42-8.83,14.86-16.06,25.7-20.48,11.24-5.22,23.69-8.03,36.14-8.03,23.69,0,41.76,7.63,55.41,23.29,13.65,15.66,20.08,36.54,20.08,63.45v140.14l-39.75.4h0Z"/>
    <g>
      <polygon class="st0" points="463.88 456.14 541.36 378.24 460.56 296.61 300.62 456.55 460.56 615.67 540.95 534.04 463.88 456.14"/>
      <polygon class="st0" points="521.47 456.14 681 615.67 839.28 456.14 681 296.61 521.47 456.14"/>
    </g>
  </g>
</svg>